Coordinates
version=1
nRows=14
nColumns=24
inDegrees=yes

Units are S.I. units (second, meters, Newtons, ...)
Angles are in degrees.

endheader
time	pelvis_tilt	pelvis_list	pelvis_rotation	pelvis_tx	pelvis_ty	pelvis_tz	hip_flexion_r	hip_adduction_r	hip_rotation_r	knee_angle_r	ankle_angle_r	subtalar_angle_r	mtp_angle_r	hip_flexion_l	hip_adduction_l	hip_rotation_l	knee_angle_l	ankle_angle_l	subtalar_angle_l	mtp_angle_l	lumbar_extension	lumbar_bending	lumbar_rotation
      0.58300000	     -4.01124749	      3.99750944	      8.67039174	     -0.84543272	      0.99770887	      0.33447646	     31.48834882	     -6.01744398	    -14.51254290	     -2.02458843	      3.19414311	      8.09916097	     13.67810013	    -11.17118999	      8.37828298	     10.37297177	     -5.68413471	     14.78986896	     -3.51359936	      3.25665163	     -1.54676344	     -7.63799424	     -7.73425858
      0.58716667	     -3.98009384	      3.86965353	      8.74475805	     -0.83944950	      0.99704581	      0.33441087	     31.50961557	     -5.85720476	    -14.27806333	     -2.65154637	      3.19303237	      7.57024369	     13.53313360	    -11.39401992	      8.20698878	     10.54337922	     -6.01453034	     14.94793694	     -3.64576623	      3.12229294	     -1.49116581	     -7.47406199	     -7.77895416
      0.59133333	     -3.94503201	      3.73877908	      8.81695537	     -0.83342109	      0.99641461	      0.33435955	     31.51558716	     -5.68704958	    -13.98432477	     -3.29779512	      3.15510731	      6.93544443	     13.39953984	    -11.59917415	      8.03368944	     10.65206502	     -6.39391514	     15.07081542	     -3.73399520	      2.99280569	     -1.44910340	     -7.30238685	     -7.87768780
      0.59550000	     -3.90241587	      3.60962591	      8.88604840	     -0.82737537	      0.99582743	      0.33432587	     31.50052251	     -5.50846710	    -13.63657047	     -3.94346558	      3.01601811	      6.19072139	     13.23893982	    -11.78955058	      7.86362766	     10.71420975	     -6.81593012	     15.15444040	     -3.82758608	      2.83351329	     -1.41779909	     -7.13805590	     -7.96459216
      0.59966667	     -3.84375031	      3.46910263	      8.94180662	     -0.82125301	      0.99526779	      0.33431646	     31.46814265	     -5.30792699	    -13.26465082	     -4.61656610	      2.89593636	      5.47198772	     13.13608961	    -12.01629924	      7.67960284	     10.83056181	     -7.21024322	     15.27374925	     -3.90232720	      2.72930483	     -1.37858876	     -6.94960799	     -8.04698068
      0.60383333	     -3.78426549	      3.33059695	      8.99089807	     -0.81509952	      0.99474658	      0.33433764	     31.41928047	     -5.09406708	    -12.82765332	     -5.26541218	      2.64126264	      4.61335197	     13.03225231	    -12.22043560	      7.49976839	     10.88177181	     -7.64512274	     15.32500004	     -3.98870104	      2.62401415	     -1.34467031	     -6.76531772	     -8.12966145
      0.60800000	     -3.72870269	      3.18386877	      9.03844967	     -0.80890894	      0.99424910	      0.33438548	     31.36779127	     -4.86508420	    -12.37301831	     -5.90876605	      2.33205496	      3.72651055	     12.93890752	    -12.41143645	      7.31215382	     10.93682280	     -8.09694531	     15.36313182	     -4.07629904	      2.53114461	     -1.30360760	     -6.58120675	     -8.20378540
      0.61216667	     -3.66402597	      3.04623705	      9.08093902	     -0.80270052	      0.99379813	      0.33446509	     31.30032504	     -4.63351931	    -11.88988665	     -6.53878296	      1.93926396	      2.79990572	     12.84724492	    -12.60144523	      7.13300807	     10.97827994	     -8.57401556	     15.35748462	     -4.16063438	      2.44180175	     -1.27037766	     -6.41188152	     -8.27078692
      0.61633333	     -3.61842224	      2.89354796	      9.12000872	     -0.79643111	      0.99335461	      0.33456734	     31.24535536	     -4.37978439	    -11.37958609	     -7.15320137	      1.50103193	      1.84438790	     12.77354089	    -12.76209395	      6.94278961	     11.03784668	     -9.06717425	     15.36594361	     -4.23996143	      2.37510138	     -1.19639997	     -6.21870895	     -8.34464784
      0.62050000	     -3.55662515	      2.73968955	      9.14829831	     -0.79012263	      0.99296256	      0.33472308	     31.16665852	     -4.10857118	    -10.85197720	     -7.74578843	      0.98854603	      0.85807978	     12.71246885	    -12.92815078	      6.74790389	     11.05840879	     -9.58467269	     15.32202170	     -4.32769751	      2.32607926	     -1.13936074	     -6.02981992	     -8.41016825
      0.62466667	     -3.49546548	      2.58933968	      9.17736825	     -0.78381539	      0.99260304	      0.33489949	     31.08780115	     -3.83678650	    -10.31718754	     -8.32883408	      0.40814247	     -0.14336939	     12.65827975	    -13.08098442	      6.55579808	     11.07744388	    -10.12431821	     15.25564865	     -4.39137080	      2.29160654	     -1.09181524	     -5.85597063	     -8.46703235
      0.62883333	     -3.45426641	      2.43938854	      9.20449495	     -0.77747016	      0.99225927	      0.33510739	     31.02683517	     -3.56169397	     -9.77584089	     -8.89825844	     -0.22604199	     -1.14221930	     12.61288066	    -13.19593345	      6.36770446	     11.08979590	    -10.69345977	     15.15343711	     -4.45218311	      2.27551220	     -1.00693851	     -5.68289653	     -8.52500298
      0.63300000	     -3.41436649	      2.28242691	      9.22648044	     -0.77109012	      0.99195145	      0.33535292	     30.96444904	     -3.27242336	     -9.23301528	     -9.45521660	     -0.90630214	     -2.13546018	     12.57468672	    -13.29662211	      6.17065204	     11.08097482	    -11.28558125	     15.01998911	     -4.50180134	      2.27942057	     -0.91433115	     -5.50432369	     -8.57682338
      0.63716667	     -3.37014527	      2.13228600	      9.24710210	     -0.76470237	      0.99168523	      0.33562520	     30.89835578	     -2.98677139	     -8.69502061	    -10.00822553	     -1.60521173	     -3.10314765	     12.54285806	    -13.38541486	      5.97980917	     11.07372578	    -11.91063850	     14.86324760	     -4.53335329	      2.30423603	     -0.83453477	     -5.34202010	     -8.62323816
